<?xml version="1.0" encoding="UTF-8"?>
<svg id="Layer_1" data-name="Layer 1" xmlns="http://www.w3.org/2000/svg" xmlns:xlink="http://www.w3.org/1999/xlink" viewBox="0 0 100 100">
  <defs>
    <style>
      .cls-1 {
        fill: #fff;
      }

      .cls-2 {
        fill: url(#linear-gradient);
      }
    </style>
    <linearGradient id="linear-gradient" x1="50" y1="101.65" x2="50" y2="0" gradientUnits="userSpaceOnUse">
      <stop offset="0" stop-color="#462dff"/>
      <stop offset=".42" stop-color="#9c87f6"/>
      <stop offset="1" stop-color="#e8daec"/>
    </linearGradient>
  </defs>
  <rect class="cls-2" width="100" height="100" rx="6.65" ry="6.65"/>
  <path class="cls-1" d="m56.06,42.74c0-2.94-2.08-4.57-5.73-4.57h-6.71v9.48h5.66c4.37-.01,6.78-1.77,6.78-4.91Zm24.43-1.7c-1.26-4.11-1.45-9.16-1.3-13.06.15-4.06-3.02-7.79-7.28-7.79H28.12c-4.27,0-7.43,3.74-7.28,7.79.13,3.9-.04,8.95-1.3,13.06-1.28,4.13-3.42,6.74-6.95,7.07v3.79c3.51.33,5.67,2.94,6.95,7.07,1.26,4.11,1.45,9.16,1.3,13.06-.15,4.06,3.02,7.79,7.28,7.79h43.76c4.27,0,7.43-3.74,7.28-7.79-.13-3.9.04-8.95,1.3-13.06,1.28-4.13,3.42-6.74,6.94-7.07v-3.79c-3.5-.33-5.66-2.94-6.92-7.07Zm-28.87,24.83h-13.03v-31.73h12.97c5.77,0,9.55,3.12,9.55,7.91,0,3.37-2.54,6.38-5.79,6.9v.17c4.42.48,7.39,3.54,7.39,7.76,0,5.61-4.17,8.99-11.08,8.99Zm-1.33-14.47h-6.67v10.44h6.96c4.55,0,6.96-1.82,6.96-5.26,0-3.42-2.48-5.18-7.26-5.18Z"/>
</svg>