<?xml version="1.0" encoding="UTF-8"?>
<svg id="Layer_1" data-name="Layer 1" xmlns="http://www.w3.org/2000/svg" xmlns:xlink="http://www.w3.org/1999/xlink" viewBox="0 0 100 100">
  <defs>
    <style>
      .cls-1 {
        fill: url(#linear-gradient-2);
      }

      .cls-2 {
        fill: url(#linear-gradient);
      }
    </style>
    <linearGradient id="linear-gradient" x1="50" y1="75.21" x2="50" y2="25.9" gradientUnits="userSpaceOnUse">
      <stop offset="0" stop-color="#462dff"/>
      <stop offset=".42" stop-color="#9c87f6"/>
      <stop offset="1" stop-color="#e8daec"/>
    </linearGradient>
    <linearGradient id="linear-gradient-2" y1="101.65" x2="50" y2="0" xlink:href="#linear-gradient"/>
  </defs>
  <polygon class="cls-2" points="51.36 34.34 50.2 34.82 30.21 43.15 30.85 51.4 30.88 51.39 30.88 51.4 60.54 51.49 59.88 62.48 50.12 65.23 40.74 62.85 40.17 56.02 31.45 56.02 32.59 69.2 50.21 74.41 67.73 69.29 70.01 43.15 50.12 43.15 50.18 43.13 70.74 34.34 71.6 25.9 28.4 25.9 29.44 34.34 51.36 34.34"/>
  <path class="cls-1" d="m93.35,0H6.65C2.98,0,0,2.98,0,6.65v86.71c0,3.67,2.98,6.65,6.65,6.65h86.71c3.67,0,6.65-2.98,6.65-6.65V6.65c0-3.67-2.98-6.65-6.65-6.65Zm-15.34,82.22l-28.02,9.31-28.02-9.31L15.76,11.64h68.48l-6.22,70.58Z"/>
</svg>