<?xml version="1.0" encoding="UTF-8"?>
<svg id="Layer_1" data-name="Layer 1" xmlns="http://www.w3.org/2000/svg" viewBox="0 0 100 99.92">
  <defs>
    <style>
      .cls-1 {
        fill: #fff;
      }

      .cls-2 {
        fill: #80caff;
      }
    </style>
  </defs>
  <rect class="cls-2" width="99.92" height="99.92" rx="8.04" ry="8.04"/>
  <path class="cls-1" d="m29.82,75.73c.1-2.6,2.18-6.14,3.99-9.78,2.16-4.35,4.49-8.63,4.34-13.72-.12-3.97-1.61-4.96-5-2.55-4.99,3.54-8.69,8.28-12.29,13.11-1.74,2.35-3.49,4.69-6.01,6.27-4.62,2.91-10.39,1.66-13.34-2.81C-1.38,61.87,0,56.09,4.61,53.05c3.93-2.59,8.45-2.66,12.89-2.99,4.06-.3,8.22-.15,11.92-2.2,1.94-1.07,5.02-1.67,4.71-4.42-.27-2.42-3.24-2.48-5.21-2.92-6.82-1.53-13.72-2.67-20.52-4.24-4.18-.97-7.46-3.14-8.18-7.95-.64-4.22,1.15-7.25,4.43-9.4,4.12-2.7,8.33-1.64,11.98.93,1.99,1.4,3.5,3.61,4.92,5.68,2.31,3.38,4.68,6.71,7.72,9.45,2.23,2.01,4.84,5.4,7.79,3.57,2.54-1.58.76-5.35.22-8.15-1.01-5.25-4.21-9.56-6.23-14.37-2.7-6.42-1.3-12.71,3.48-14.87,3.74-1.69,7.61-1.68,10.99,1.06,3.4,2.75,4.33,6.62,3.1,10.52-1.63,5.16-4.33,9.98-5.88,15.15-1.11,3.69-3.83,9.07,0,11.19,3.26,1.8,6.35-3.32,8.9-6.03,3.84-4.09,7.02-8.82,10.97-12.79,3.08-3.1,7.2-3.79,11.32-1.71,3.49,1.76,4.9,4.86,4.82,8.64-.09,4.49-2.76,7.11-6.7,8.57-2.17.8-4.43,1.38-6.69,1.86-3.98.85-8.03,1.4-11.98,2.38-3.1.77-7.81,1.09-7.86,4.62-.05,3.39,4.71,3.31,7.57,3.97,5.66,1.31,11.45,2.1,17.16,3.2,4.31.83,7.66,2.87,8.36,7.65.62,4.2-.5,7.81-4.36,9.97-4.27,2.38-8.24,1.2-11.89-1.63-2.82-2.19-4.63-5.22-6.51-8.15-2.44-3.81-5.38-7.14-9.18-9.61-1.41-.91-3.1-2.3-4.78-1.1-1.4,1-.81,2.91-.59,4.4.69,4.63,2.21,9.01,4.12,13.3,1.34,3,2.69,6.08,3.35,9.27,1.39,6.69-2.21,11.5-8.44,11.92-6.19.41-10.58-3.94-10.52-12.08Z"/>
  <path class="cls-1" d="m95.67,90.07c-.88-.09-2.04-.87-3.24-1.56-1.44-.82-2.84-1.71-4.58-1.76-1.35-.04-1.72.45-.97,1.65,1.1,1.77,2.63,3.13,4.2,4.45.76.64,1.52,1.29,2.01,2.17.89,1.63.35,3.57-1.23,4.48-1.55.89-3.49.3-4.43-1.33-.8-1.39-.73-2.93-.75-4.45-.02-1.39.12-2.8-.5-4.1-.32-.68-.46-1.74-1.4-1.69-.83.04-.91,1.05-1.1,1.71-.66,2.29-1.19,4.61-1.87,6.89-.42,1.4-1.22,2.47-2.88,2.62-1.45.13-2.44-.54-3.11-1.7-.83-1.46-.39-2.87.57-4.06.52-.65,1.3-1.12,2.03-1.55,1.2-.72,2.38-1.45,3.38-2.43.73-.71,1.94-1.53,1.38-2.57-.48-.9-1.8-.37-2.77-.24-1.81.23-3.34,1.23-5.02,1.82-2.24.78-4.35.18-4.99-1.49-.5-1.31-.41-2.62.59-3.71,1.01-1.1,2.34-1.34,3.64-.83,1.72.66,3.3,1.68,5.03,2.32,1.23.45,3.01,1.49,3.81.23.68-1.07-1-2.23-1.86-3.15-1.31-1.39-2.85-2.57-4.12-4-.99-1.11-1.14-2.53-.35-3.88.67-1.15,1.75-1.56,3.04-1.46,1.53.12,2.36,1.09,2.78,2.46.23.75.38,1.54.49,2.32.21,1.37.31,2.76.56,4.12.2,1.07.21,2.68,1.41,2.77,1.15.09,1.23-1.53,1.51-2.49.56-1.9.95-3.85,1.44-5.77.37-1.45,1.13-2.55,2.78-2.68,1.44-.12,2.65.33,3.3,1.69.72,1.5.24,2.83-.8,4.01-.8.91-1.87,1.47-2.91,2.05-1.35.75-2.54,1.68-3.46,2.92-.34.46-.85,1.01-.48,1.6.31.5.97.34,1.48.29,1.59-.14,3.11-.56,4.61-1.12,1.05-.39,2.12-.79,3.22-.95,2.31-.33,3.87.99,3.88,3.12.01,2.11-1.56,3.52-4.33,3.33Z"/>
</svg>