<?xml version="1.0" encoding="UTF-8"?>
<svg id="Layer_1" data-name="Layer 1" xmlns="http://www.w3.org/2000/svg" xmlns:xlink="http://www.w3.org/1999/xlink" viewBox="0 0 100 100">
  <defs>
    <style>
      .cls-1 {
        fill: #fff;
      }

      .cls-2 {
        fill: url(#linear-gradient);
      }
    </style>
    <linearGradient id="linear-gradient" x1="50" y1="101.65" x2="50" y2="0" gradientUnits="userSpaceOnUse">
      <stop offset="0" stop-color="#462dff"/>
      <stop offset=".42" stop-color="#9c87f6"/>
      <stop offset="1" stop-color="#e8daec"/>
    </linearGradient>
  </defs>
  <rect class="cls-2" width="100" height="100" rx="6.65" ry="6.65"/>
  <path class="cls-1" d="m20.76,23.68c0-8.69,7.05-15.74,15.74-15.74h27c8.69,0,15.74,7.05,15.74,15.74,0,5.5-2.82,10.35-7.1,13.16,4.28,2.81,7.1,7.66,7.1,13.16,0,8.69-7.05,15.74-15.74,15.74h-.34c-4.07,0-7.79-1.55-10.58-4.09v14.5c0,8.81-7.23,15.91-15.99,15.91s-15.82-7.02-15.82-15.74c0-5.5,2.82-10.35,7.1-13.16-4.28-2.81-7.1-7.66-7.1-13.16s2.82-10.35,7.1-13.16c-4.28-2.81-7.1-7.66-7.1-13.16Zm26.66,15.74h-10.92c-5.84,0-10.58,4.74-10.58,10.58s4.7,10.55,10.51,10.58c.02,0,.05,0,.07,0h10.92v-21.16Zm5.15,10.58c0,5.84,4.74,10.58,10.58,10.58h.34c5.84,0,10.58-4.74,10.58-10.58s-4.74-10.58-10.58-10.58h-.34c-5.84,0-10.58,4.74-10.58,10.58Zm-16.08,15.74s-.05,0-.07,0c-5.81.04-10.51,4.76-10.51,10.58s4.8,10.58,10.67,10.58,10.84-4.84,10.84-10.75v-10.41h-10.92Zm0-52.64c-5.84,0-10.58,4.74-10.58,10.58s4.74,10.58,10.58,10.58h10.92V13.1h-10.92Zm16.08,21.16h10.92c5.84,0,10.58-4.74,10.58-10.58s-4.74-10.58-10.58-10.58h-10.92v21.16Z"/>
</svg>