<?xml version="1.0" encoding="UTF-8"?>
<svg id="Layer_1" data-name="Layer 1" xmlns="http://www.w3.org/2000/svg" xmlns:xlink="http://www.w3.org/1999/xlink" viewBox="0 0 100 100">
  <defs>
    <style>
      .cls-1 {
        fill: url(#linear-gradient-2);
      }

      .cls-2 {
        fill: url(#linear-gradient);
      }
    </style>
    <linearGradient id="linear-gradient" x1="50.01" y1="73.84" x2="50.01" y2="24.31" gradientUnits="userSpaceOnUse">
      <stop offset="0" stop-color="#462dff"/>
      <stop offset=".42" stop-color="#9c87f6"/>
      <stop offset="1" stop-color="#e8daec"/>
    </linearGradient>
    <linearGradient id="linear-gradient-2" x1="50" y1="101.65" x2="50" y2="0" xlink:href="#linear-gradient"/>
  </defs>
  <polygon class="cls-2" points="60.57 50.32 59.5 61.43 49.91 64.02 40.35 61.43 39.73 54.63 31.21 54.63 32.28 68.17 49.91 73.04 50.11 73.04 50.11 72.99 67.59 68.17 70.02 41.66 38.66 41.66 37.93 32.84 70.76 32.84 71.54 24.32 28.48 24.32 30.76 50.32 60.57 50.32"/>
  <path class="cls-1" d="m93.35,0H6.65C2.98,0,0,2.98,0,6.65v86.71c0,3.67,2.98,6.65,6.65,6.65h86.71c3.67,0,6.65-2.98,6.65-6.65V6.65c0-3.67-2.98-6.65-6.65-6.65Zm-15.29,80.69l-28.15,9.32-27.97-9.32L15.71,9.99h68.59l-6.23,70.7Z"/>
</svg>