<?xml version="1.0" encoding="UTF-8"?>
<svg id="Layer_1" data-name="Layer 1" xmlns="http://www.w3.org/2000/svg" xmlns:xlink="http://www.w3.org/1999/xlink" viewBox="0 0 100 100">
  <defs>
    <style>
      .cls-1 {
        fill: #fff;
      }

      .cls-2 {
        fill: url(#linear-gradient);
      }
    </style>
    <linearGradient id="linear-gradient" x1="50" y1="-1.65" x2="50" y2="100" gradientTransform="translate(0 100) scale(1 -1)" gradientUnits="userSpaceOnUse">
      <stop offset="0" stop-color="#462dff"/>
      <stop offset=".42" stop-color="#9c87f6"/>
      <stop offset="1" stop-color="#e8daec"/>
    </linearGradient>
  </defs>
  <rect class="cls-2" width="100" height="100" rx="6.65" ry="6.65"/>
  <g>
    <path class="cls-1" d="m71.52,23.79c-3.3.02-5.77,2.48-5.75,5.75,0,3.44,2.36,5.79,5.79,5.79s5.65-2.43,5.65-5.83-2.29-5.75-5.68-5.73h0Z"/>
    <path class="cls-1" d="m75.21,39.3c-2.45.06-4.91.02-7.36.02-1.55,0-1.57.02-1.57,1.57v33.88c0,1.3.14,1.42,1.44,1.42,2.49,0,4.98-.05,7.47.02,1.12.03,1.41-.39,1.4-1.45-.04-5.66-.02-11.33-.02-16.99s-.02-11.4.02-17.1c0-1.05-.35-1.39-1.37-1.36h0Z"/>
    <path class="cls-1" d="m43.18,27.47c-1.7.04-3.39.02-5.09.02s-3.54.02-5.31,0c-.84-.02-1.29.22-1.26,1.15.05,1.43-.32,2.78-.79,4.12-.8,2.28-1.58,4.57-2.38,6.85-4.03,11.62-8.07,23.25-12.11,34.87-.56,1.61-.5,1.69,1.24,1.7,2.24,0,4.48-.07,6.71.03,1.22.06,1.73-.43,2.06-1.53.89-2.97,1.91-5.91,2.82-8.87.25-.81.59-1.15,1.5-1.14,5.01.05,10.04.04,15.05,0,.84,0,1.21.3,1.46,1.06,1.04,3.12,2.14,6.21,3.18,9.32.27.8.67,1.17,1.55,1.15,2.78-.05,5.56,0,8.34-.02,1.25,0,1.35-.14.93-1.33-5.47-15.44-10.95-30.87-16.4-46.32-.28-.8-.72-1.05-1.52-1.03v-.02Zm-.53,27.87c-3.14,0-6.28,0-9.41,0-.74,0-1.08-.16-.83-1,1.76-5.76,3.49-11.52,5.24-17.28.06-.19.07-.43.45-.6.13.34.26.63.35.94,1.71,5.55,3.42,11.1,5.12,16.64.38,1.24.36,1.29-.93,1.29Z"/>
  </g>
</svg>