<?xml version="1.0" encoding="UTF-8"?>
<svg id="Layer_1" data-name="Layer 1" xmlns="http://www.w3.org/2000/svg" xmlns:xlink="http://www.w3.org/1999/xlink" viewBox="0 0 100 100">
  <defs>
    <style>
      .cls-1 {
        fill: url(#linear-gradient);
      }
    </style>
    <linearGradient id="linear-gradient" x1="50" y1="101.65" x2="50" y2="0" gradientUnits="userSpaceOnUse">
      <stop offset="0" stop-color="#462dff"/>
      <stop offset=".42" stop-color="#9c87f6"/>
      <stop offset="1" stop-color="#e8daec"/>
    </linearGradient>
  </defs>
  <path class="cls-1" d="m0,6.32v87.35c0,3.49,2.83,6.32,6.32,6.32h87.35c3.49,0,6.32-2.83,6.32-6.32V6.32c0-3.49-2.83-6.32-6.32-6.32H6.32C2.83,0,0,2.83,0,6.32Zm54.42,71.67c0,9.73-5.71,14.17-14.04,14.17-7.52,0-11.87-3.88-14.11-8.59l7.66-4.62c1.47,2.61,2.81,4.82,6.05,4.82s5.04-1.21,5.04-5.92v-31.94h9.4v32.08h0Zm22.23,14.17c-8.73,0-14.37-4.15-17.12-9.6l7.66-4.42c2.01,3.28,4.64,5.71,9.26,5.71,3.88,0,6.38-1.94,6.38-4.64,0-3.21-2.54-4.35-6.85-6.25l-2.34-1c-6.79-2.88-11.27-6.52-11.27-14.17,0-7.05,5.38-12.41,13.75-12.41,5.98,0,10.27,2.08,13.35,7.52l-7.32,4.69c-1.61-2.88-3.35-4.02-6.05-4.02s-4.49,1.74-4.49,4.02c0,2.81,1.74,3.95,5.78,5.71l2.34,1c7.99,3.42,12.48,6.92,12.48,14.78,0,8.44-6.65,13.08-15.56,13.08h0Z"/>
</svg>