<?xml version="1.0" encoding="utf-8"?>
<!-- Generator: Adobe Illustrator 27.6.1, SVG Export Plug-In . SVG Version: 6.00 Build 0)  -->
<svg version="1.1" id="Layer_1" xmlns="http://www.w3.org/2000/svg" xmlns:xlink="http://www.w3.org/1999/xlink" x="0px" y="0px"
	 viewBox="0 0 20 20" style="enable-background:new 0 0 20 20;" xml:space="preserve">
<style type="text/css">
	.st0{opacity:0.85;fill:#642BFF;enable-background:new    ;}
</style>
<path class="st0" d="M18.8,6.6c0.7-1,1-2.1,1-3c0-0.7-0.2-1.9-0.5-2.3c-0.6,0-1.2,0-1.8,0h-0.2c-2.2,0-5.9,1-7.3,5.5
	C8.6,2.3,4.9,1.3,2.7,1.3H2.5c-0.6,0-1.2,0-1.8,0C0.4,1.8,0.2,2.9,0.2,3.6c0,0.9,0.3,2,1,3c1,1.4,4.6,3.7,4.6,6
	c0,0.6-0.2,1.2-0.8,1.8l0.1,0.1c1.2-0.7,1.8-1.8,1.8-3c0-1.1-0.4-2.2-1.3-3.1c-1.5-1.5-4-2.3-4.8-4.2C0.6,3.9,0.6,3.6,0.6,3.4
	c0-0.8,0.8-1.3,1.8-1.3c0.8,0,1.7,0.3,2.5,0.8C6.5,4.1,8,6.5,8.1,10.3c0,0.2,0,0.4,0,0.6c0,3.9-1.5,6.9-4.7,6.9c-0.3,0-0.6,0-1-0.1
	c-0.6-0.2-1.2-1-1.2-1l0,1c0.8,0.4,1.7,0.5,2.4,0.5c2.9,0,5.3-2,6.3-4.6c1,2.7,3.4,4.6,6.3,4.6c0.8,0,1.6-0.2,2.4-0.5l0-1
	c0,0-0.6,0.8-1.2,1c-0.3,0.1-0.6,0.1-1,0.1c-3.2,0-4.7-3.1-4.7-6.9c0-0.2,0-0.4,0-0.6C12,6.5,13.5,4.1,15.1,3
	c0.8-0.6,1.7-0.8,2.5-0.8c1,0,1.8,0.4,1.8,1.3c0,0.2,0,0.4-0.2,0.7c-0.9,1.9-3.4,2.7-4.8,4.2c-0.8,0.9-1.3,2-1.3,3.1
	c0,1.2,0.6,2.4,1.8,3l0.1-0.1c-0.5-0.6-0.8-1.2-0.8-1.8C14.2,10.3,17.8,8,18.8,6.6z"/>
</svg>
