<?xml version="1.0" encoding="UTF-8"?>
<svg id="Layer_1" data-name="Layer 1" xmlns="http://www.w3.org/2000/svg" xmlns:xlink="http://www.w3.org/1999/xlink" viewBox="0 0 100 100">
  <defs>
    <style>
      .cls-1 {
        fill: #fff;
      }

      .cls-2 {
        fill: url(#linear-gradient);
      }
    </style>
    <linearGradient id="linear-gradient" x1="50" y1="-1.65" x2="50" y2="100" gradientTransform="translate(0 100) scale(1 -1)" gradientUnits="userSpaceOnUse">
      <stop offset="0" stop-color="#462dff"/>
      <stop offset=".42" stop-color="#9c87f6"/>
      <stop offset="1" stop-color="#e8daec"/>
    </linearGradient>
  </defs>
  <rect class="cls-2" width="100" height="100" rx="6.65" ry="6.65"/>
  <path class="cls-1" d="m44.83,29.34c-3.09-1.52-6.4-2.03-9.81-2.11-4.22-.1-8.44.2-12.67.22-1.53,0-1.63.12-1.63,1.62v41.36c0,1.28.19,1.48,1.47,1.5,2.06.02,4.13.02,6.19,0,1.5,0,1.69-.21,1.7-1.71v-11.1c0-1.17.14-1.36,1.31-1.26,1.71.16,3.4.08,5.1-.03,3.27-.22,6.43-.82,9.29-2.54,4.29-2.59,6.42-6.47,6.81-11.4.45-5.61-1.73-11.57-7.78-14.55l.02.02Zm-1.69,14.99c-.38,1.92-1.55,3.2-3.21,4.09-1.68.89-3.5,1.25-5.39,1.26h-3.33c-.79,0-1.11-.35-1.1-1.14.02-1.96,0-3.93,0-5.89s.02-3.79,0-5.69c-.02-.83.3-1.19,1.15-1.17,2.08.07,4.18-.19,6.26.21,4.33.83,6.47,4,5.63,8.32v.02Z"/>
  <path class="cls-1" d="m76.52,53.7c-.66-.37-1.31-.73-1.98-1.08-2.06-1.08-4.33-1.68-6.39-2.78-.58-.31-1.15-.62-1.59-1.13-.9-1.03-.6-2.37.65-2.9.61-.26,1.25-.36,1.91-.38,3.16-.1,6.19.39,9.09,1.68,1.15.51,1.59.24,1.6-1.03.02-1.83,0-3.6.02-5.5,0-1.06-.44-1.61-1.42-1.93-1.73-.56-3.51-.8-5.3-.94-3.08-.23-6.15-.21-9.11.9-5.56,2.08-8.36,7.64-6.46,12.84.94,2.56,2.87,4.22,5.15,5.58,2.16,1.28,4.55,2.01,6.79,3.06.77.36,1.56.71,2.15,1.35.87.98.67,2.16-.48,2.8-.61.33-1.29.46-1.98.51-3.88.27-7.56-.46-11.01-2.27-.96-.5-1.23-.34-1.26.72-.02,1.05,0,2.09,0,3.14h0c0,.95.05,1.9-.02,2.84-.06,1.05.38,1.63,1.34,1.99,2.2.85,4.47,1.27,6.79,1.45,3.73.3,7.42.1,10.83-1.61,3.66-1.83,5.58-4.88,5.67-8.97.08-3.8-1.75-6.55-5.01-8.39h0Z"/>
</svg>