<?xml version="1.0" encoding="UTF-8"?>
<svg id="Layer_1" data-name="Layer 1" xmlns="http://www.w3.org/2000/svg" xmlns:xlink="http://www.w3.org/1999/xlink" viewBox="0 0 100 100">
  <defs>
    <style>
      .cls-1 {
        fill: #fff;
      }

      .cls-2 {
        fill: url(#linear-gradient);
      }
    </style>
    <linearGradient id="linear-gradient" x1="50" y1="101.65" x2="50" y2="0" gradientUnits="userSpaceOnUse">
      <stop offset="0" stop-color="#462dff"/>
      <stop offset=".42" stop-color="#9c87f6"/>
      <stop offset="1" stop-color="#e8daec"/>
    </linearGradient>
  </defs>
  <rect class="cls-2" width="100" height="100" rx="6.65" ry="6.65"/>
  <path class="cls-1" d="m77.45,35.59c-.92-.31-1.83-.59-2.75-.87.15-.63.29-1.26.42-1.88,2.09-10.12.71-18.25-3.92-20.94-4.47-2.56-11.75.1-19.12,6.52-.73.63-1.44,1.29-2.12,1.95-.46-.44-.93-.88-1.41-1.31-7.73-6.86-15.47-9.75-20.11-7.05-4.45,2.58-5.77,10.24-3.91,19.82.19.95.39,1.88.63,2.84-1.09.31-2.16.65-3.16,1-9.07,3.14-15.57,8.1-15.57,13.23s6.93,10.61,16.35,13.84c.76.25,1.53.51,2.31.73-.25,1.02-.48,2.02-.68,3.06-1.78,9.42-.39,16.9,4.06,19.46,4.58,2.65,12.29-.07,19.8-6.64.59-.53,1.19-1.07,1.78-1.65.75.73,1.53,1.43,2.31,2.11,7.27,6.25,14.45,8.78,18.88,6.21,4.58-2.65,6.08-10.68,4.14-20.46-.15-.75-.32-1.51-.51-2.29.54-.15,1.07-.32,1.6-.49,9.8-3.24,16.9-8.49,16.9-13.87s-6.69-10.14-15.93-13.31h0Zm-22.97-14.42c6.32-5.5,12.21-7.66,14.89-6.11,2.87,1.65,3.97,8.3,2.17,17.05-.12.58-.24,1.14-.39,1.7-3.77-.85-7.59-1.46-11.43-1.8-2.21-3.16-4.62-6.18-7.23-9.02.66-.63,1.31-1.22,1.99-1.82Zm-19.65,36.54c.87,1.48,1.75,2.95,2.68,4.4-2.65-.29-5.28-.71-7.88-1.27.75-2.45,1.68-4.98,2.77-7.56.78,1.49,1.58,2.97,2.43,4.43h0Zm-5.15-20.43c2.45-.54,5.04-.98,7.74-1.32-.9,1.41-1.78,2.85-2.62,4.31-.83,1.44-1.65,2.92-2.41,4.41-1.07-2.53-1.97-5.01-2.72-7.4h0Zm4.65,11.7c1.12-2.34,2.34-4.64,3.63-6.89s2.68-4.45,4.14-6.61c2.55-.19,5.15-.29,7.79-.29s5.26.1,7.79.29c1.44,2.14,2.82,4.33,4.13,6.57s2.53,4.53,3.68,6.86c-1.14,2.34-2.36,4.65-3.67,6.93-1.29,2.26-2.67,4.45-4.11,6.62-2.53.19-5.16.27-7.83.27s-5.25-.08-7.74-.24c-1.48-2.16-2.87-4.36-4.18-6.62s-2.51-4.55-3.65-6.89h0Zm30.67,8.69c.87-1.49,1.68-3.01,2.48-4.53,1.09,2.46,2.04,4.96,2.87,7.52-2.63.59-5.3,1.05-7.98,1.36.92-1.43,1.78-2.89,2.63-4.35h0Zm2.45-12.99c-.8-1.49-1.61-2.99-2.46-4.45-.83-1.44-1.7-2.87-2.6-4.28,2.73.34,5.35.8,7.79,1.36-.78,2.51-1.7,4.96-2.73,7.37Zm-17.51-19.1c1.78,1.94,3.46,3.97,5.03,6.08-3.36-.15-6.74-.15-10.1,0,1.66-2.19,3.38-4.23,5.08-6.08Zm-19.7-10.41c2.85-1.66,9.19.71,15.86,6.62.42.37.85.78,1.29,1.19-2.63,2.84-5.06,5.86-7.28,9.02-3.84.34-7.64.93-11.41,1.77-.22-.87-.41-1.75-.59-2.63-1.6-8.22-.54-14.42,2.14-15.96h0Zm-4.16,44.76c-.71-.2-1.41-.42-2.11-.66-3.62-1.14-7.73-2.94-10.7-5.3-1.72-1.19-2.87-3.02-3.19-5.08,0-3.11,5.37-7.08,13.11-9.78.97-.34,1.95-.65,2.94-.93,1.15,3.68,2.55,7.3,4.16,10.8-1.63,3.55-3.04,7.22-4.21,10.95Zm19.8,16.64c-2.8,2.56-6.05,4.6-9.58,5.99-1.88.9-4.06.98-5.99.22-2.7-1.56-3.82-7.56-2.29-15.62.19-.95.39-1.9.63-2.84,3.8.82,7.64,1.38,11.53,1.66,2.24,3.18,4.7,6.21,7.34,9.07-.54.53-1.09,1.04-1.63,1.51h0Zm4.16-4.13c-1.73-1.87-3.46-3.94-5.15-6.16,1.63.07,3.31.1,5.01.1s3.46-.03,5.16-.12c-1.56,2.16-3.24,4.21-5.03,6.18Zm22.19,5.09c-.15,2.07-1.17,4.01-2.8,5.31-2.7,1.56-8.46-.48-14.67-5.81-.71-.61-1.43-1.27-2.16-1.95,2.6-2.87,4.99-5.91,7.17-9.1,3.89-.32,7.76-.92,11.58-1.78.17.7.32,1.39.46,2.07.83,3.67.97,7.49.42,11.26h0Zm3.09-18.25c-.48.15-.95.31-1.44.44-1.19-3.7-2.65-7.32-4.33-10.83,1.63-3.46,3.01-7.03,4.16-10.68.88.25,1.73.53,2.55.8,7.91,2.72,13.47,6.76,13.47,9.85,0,3.33-5.93,7.62-14.4,10.43Zm-25.42-2.55c4.3,0,7.78-3.48,7.78-7.78s-3.48-7.78-7.78-7.78-7.78,3.48-7.78,7.78,3.48,7.78,7.78,7.78h0Z"/>
</svg>