<?xml version="1.0" encoding="UTF-8"?>
<svg id="Layer_1" data-name="Layer 1" xmlns="http://www.w3.org/2000/svg" xmlns:xlink="http://www.w3.org/1999/xlink" viewBox="0 0 100 100">
  <defs>
    <style>
      .cls-1 {
        fill: #fff;
      }

      .cls-2 {
        fill: url(#linear-gradient);
      }
    </style>
    <linearGradient id="linear-gradient" x1="50" y1="101.65" x2="50" y2="0" gradientUnits="userSpaceOnUse">
      <stop offset="0" stop-color="#462dff"/>
      <stop offset=".42" stop-color="#9c87f6"/>
      <stop offset="1" stop-color="#e8daec"/>
    </linearGradient>
  </defs>
  <rect class="cls-2" width="100" height="100" rx="6.65" ry="6.65"/>
  <path class="cls-1" d="m48.48,63.56c-.04.08-.08.14,0,0Zm32.23-11.26c-2.6,0-5.17.6-7.5,1.75-.76-1.54-1.55-2.89-1.68-3.89-.16-1.18-.32-1.88-.14-3.27s1-3.38.98-3.52-.18-.85-1.85-.87-3.11.32-3.27.76c-.29.8-.52,1.63-.69,2.47-.3,1.51-3.34,6.92-5.06,9.74-.57-1.1-1.05-2.07-1.15-2.85-.16-1.18-.32-1.88-.14-3.27s1-3.38.98-3.52-.18-.85-1.85-.87-3.11.32-3.27.76-.35,1.47-.69,2.47-4.38,10-5.44,12.34c-.54,1.19-1.01,2.15-1.35,2.79-.05.1-.09.17-.12.22.04-.06.06-.13.06-.1-.28.56-.45.87-.45.87h0c-.22.43-.47.8-.58.8-.08,0-.25-1.09.04-2.57.61-3.13,2.04-8,2.03-8.16-.01-.09.27-.93-.94-1.38-1.18-.43-1.6.28-1.71.28s-.18.26-.18.26c0,0,1.31-5.49-2.51-5.49-2.38,0-5.69,2.61-7.32,4.98-1.02.56-3.23,1.76-5.56,3.04-.89.49-1.81,1-2.68,1.47-.06-.06-.12-.13-.18-.19-4.63-4.94-13.18-8.44-12.82-15.07.13-2.42.97-8.77,16.44-16.48,12.68-6.31,22.82-4.58,24.56-.72,2.51,5.5-5.42,15.73-18.59,17.21-5.02.56-7.66-1.38-8.32-2.11-.69-.76-.79-.8-1.05-.66-.43.23-.16.91,0,1.31.39,1.02,2.01,2.83,4.76,3.74,2.42.79,8.3,1.23,15.42-1.53,7.99-3.08,14.22-11.66,12.39-18.84-1.86-7.3-13.96-9.69-25.4-5.63-6.82,2.42-14.19,6.22-19.49,11.18-6.3,5.9-7.31,11.04-6.89,13.18,1.47,7.62,11.98,12.59,16.18,16.26-.21.12-.4.22-.58.32-2.11,1.05-10.12,5.24-12.12,9.66-2.26,5.02.38,8.62,2.11,9.11,5.41,1.5,10.94-1.2,13.92-5.64s2.61-10.23,1.24-12.87c-.01-.04-.04-.06-.05-.1.54-.32,1.1-.65,1.66-.97,1.07-.63,2.12-1.22,3.04-1.72-.52,1.4-.89,3.08-1.09,5.51-.23,2.85.94,6.53,2.47,7.98.67.63,1.49.65,1.99.65,1.79,0,2.59-1.47,3.48-3.23,1.1-2.15,2.07-4.64,2.07-4.64,0,0-1.22,6.75,2.11,6.75,1.21,0,2.43-1.57,2.98-2.37h0s.03-.04.09-.14c.13-.19.19-.31.19-.31v-.04c.49-.84,1.57-2.77,3.18-5.95,2.1-4.11,4.1-9.25,4.1-9.25.19,1.13.46,2.24.8,3.34.36,1.23,1.13,2.57,1.73,3.88-.49.67-.79,1.06-.79,1.06,0,0,0,.02.01.03-.39.52-.83,1.07-1.28,1.62-1.65,1.97-3.62,4.22-3.88,4.86-.31.76-.23,1.33.36,1.77.44.34,1.22.39,2.03.32,1.49-.1,2.54-.47,3.04-.7.93-.33,1.81-.8,2.61-1.37,1.62-1.19,2.6-2.9,2.51-5.15-.05-1.24-.45-2.48-.94-3.65.14-.21.3-.43.44-.65,2.56-3.74,4.54-7.84,4.54-7.84.19,1.13.46,2.24.8,3.34.31,1.05.92,2.2,1.47,3.33-2.41,1.95-3.89,4.22-4.41,5.71-.96,2.76-.21,4,1.2,4.28.63.13,1.54-.17,2.21-.45,1-.33,1.94-.82,2.79-1.44,1.62-1.19,3.18-2.86,3.08-5.12-.04-1.02-.32-2.04-.7-3.03,2.03-.85,4.67-1.32,8.03-.93,7.2.84,8.61,5.34,8.34,7.22s-1.79,2.92-2.29,3.23-.66.43-.62.66c.06.34.3.32.72.25.6-.1,3.78-1.53,3.92-5.01.21-4.4-4.02-9.24-11.52-9.2h0Zm-55.53,18.72c-2.38,2.6-5.72,3.58-7.15,2.76-1.54-.9-.93-4.72,2-7.49,1.79-1.68,4.09-3.23,5.61-4.19.35-.21.85-.52,1.47-.89.1-.06.16-.09.16-.09.12-.08.25-.14.38-.22,1.07,3.93.04,7.4-2.47,10.13h0Zm17.38-11.83c-.83,2.03-2.57,7.21-3.63,6.93-.91-.23-1.46-4.18-.18-8.06.65-1.95,2.02-4.28,2.83-5.19,1.31-1.46,2.74-1.93,3.08-1.35.45.76-1.58,6.39-2.1,7.66h0Zm14.36,6.86c-.35.18-.67.3-.83.21-.12-.06.14-.31.14-.31,0,0,1.8-1.93,2.51-2.81.41-.52.89-1.13,1.41-1.8,0,.06.01.13.01.21-.02,2.32-2.24,3.88-3.25,4.5h0Zm11.07-2.52c-.26-.18-.22-.79.65-2.68.34-.74,1.11-1.98,2.46-3.17.15.45.24.92.25,1.4-.01,2.91-2.1,4-3.35,4.45h0Z"/>
</svg>