<?xml version="1.0" encoding="UTF-8"?>
<svg id="Layer_1" data-name="Layer 1" xmlns="http://www.w3.org/2000/svg" viewBox="0 0 32 32">
  <defs>
    <style>
      .cls-1 {
        fill: #4f46e5;
      }
    </style>
  </defs>
  <path class="cls-1" d="m13.32,18.64c0,1.38-1,1.81-2.23,1.81h-3.22v-3.78h3.29c1.33,0,2.16.56,2.16,1.96h0Zm-.55-5.88c0-1.26-.98-1.56-2.06-1.56h-2.83v3.2h3.05c1.08,0,1.84-.47,1.84-1.64h0Zm9.45,1.66c-1.31,0-2.18.81-2.26,2.12h4.44c-.12-1.32-.81-2.12-2.18-2.12h0Zm9.78-10.99v25.14c0,1.89-1.54,3.43-3.43,3.43H3.43c-1.89,0-3.43-1.54-3.43-3.43V3.43C0,1.54,1.54,0,3.43,0h25.14c1.89,0,3.43,1.54,3.43,3.43Zm-12.59,7.5h5.56v-1.35h-5.56v1.35Zm-3.07,7.88c0-1.72-.81-3.21-2.5-3.69,1.23-.59,1.87-1.26,1.87-2.64,0-2.73-2.04-3.39-4.39-3.39h-6.46v13.71h6.65c2.49-.01,4.83-1.21,4.83-3.99Zm10.81-1.06c0-2.94-1.72-5.39-4.83-5.39s-5.08,2.27-5.08,5.26,1.95,5.21,5.08,5.21c2.37,0,3.91-1.06,4.65-3.34h-2.41c-.26.85-1.33,1.29-2.16,1.29-1.6,0-2.44-.94-2.44-2.52h7.16c0-.16.02-.34.02-.51h0Z"/>
</svg>