<?xml version="1.0" encoding="UTF-8"?>
<svg id="Layer_1" data-name="Layer 1" xmlns="http://www.w3.org/2000/svg" viewBox="0 0 32 32">
  <defs>
    <style>
      .cls-1 {
        fill: #4f46e5;
      }
    </style>
  </defs>
  <path class="cls-1" d="m28.57,0H3.43C1.54,0,0,1.54,0,3.43v25.14c0,1.89,1.54,3.43,3.43,3.43h25.14c1.89,0,3.43-1.54,3.43-3.43V3.43c0-1.89-1.54-3.43-3.43-3.43Zm-8.76,27.41c-.6.11-.82-.26-.82-.57,0-.39.01-2.36.01-3.95,0-1.11-.37-1.82-.81-2.19,2.64-.29,5.43-.66,5.43-5.22,0-1.3-.46-1.95-1.22-2.79.12-.31.53-1.57-.12-3.21-.99-.31-3.26,1.28-3.26,1.28-.94-.26-1.96-.4-2.97-.4s-2.03.14-2.97.4c0,0-2.27-1.59-3.26-1.28-.65,1.64-.25,2.9-.12,3.21-.76.84-1.11,1.49-1.11,2.79,0,4.54,2.66,4.93,5.31,5.22-.34.31-.65.84-.76,1.59-.68.31-2.41.84-3.45-.99-.65-1.13-1.82-1.22-1.82-1.22-1.16-.01-.08.73-.08.73.77.36,1.31,1.73,1.31,1.73.69,2.12,4.01,1.41,4.01,1.41,0,.99.01,2.61.01,2.9s-.21.68-.82.57c-4.71-1.58-8.01-6.06-8.01-11.31,0-6.56,5.01-11.54,11.57-11.54s11.87,4.98,11.87,11.54c0,5.24-3.19,9.74-7.91,11.31Zm-7.01-4.36c-.14.03-.26-.03-.28-.12-.01-.11.08-.2.21-.23.14-.01.26.04.28.14.02.09-.07.19-.21.21h0Zm-.68-.06c0,.09-.11.17-.25.17-.16.01-.26-.06-.26-.17,0-.09.11-.17.25-.17.14-.01.26.06.26.17Zm-.98-.08c-.03.09-.17.14-.29.09-.14-.03-.23-.14-.2-.23.03-.09.17-.14.29-.11.14.04.24.15.2.24h0Zm-.88-.39c-.06.08-.2.06-.31-.04-.11-.09-.14-.23-.06-.29.06-.08.2-.06.31.04.09.09.13.24.06.29Zm-.65-.65c-.06.04-.19,0-.26-.11s-.08-.23,0-.28c.08-.06.2-.01.26.09.08.11.08.24,0,.29Zm-.46-.69c-.06.06-.17.03-.25-.04-.08-.09-.09-.2-.03-.25.06-.06.17-.03.25.04.08.09.09.2.03.25Zm-.48-.53c-.03.06-.12.08-.2.03-.09-.04-.14-.12-.11-.19.03-.04.11-.06.2-.03.09.05.14.13.11.19Z"/>
</svg>