<?xml version="1.0" encoding="UTF-8"?>
<svg id="Layer_1" data-name="Layer 1" xmlns="http://www.w3.org/2000/svg" viewBox="0 0 32 32">
  <defs>
    <style>
      .cls-1 {
        fill: #4f46e5;
      }
    </style>
  </defs>
  <path class="cls-1" d="m16,12.19c-2.1,0-3.81,1.71-3.81,3.81,0,2.1,1.71,3.81,3.81,3.81,2.1,0,3.81-1.71,3.81-3.81,0-2.1-1.71-3.81-3.81-3.81Zm8.91-2.93c-.39-.99-1.18-1.78-2.17-2.17-1.5-.59-5.07-.46-6.74-.46s-5.23-.14-6.74.46c-.99.39-1.78,1.18-2.17,2.17-.59,1.5-.46,5.08-.46,6.74s-.13,5.23.46,6.74c.39.99,1.18,1.78,2.17,2.17,1.5.59,5.07.46,6.74.46s5.23.14,6.74-.46c.99-.39,1.78-1.18,2.17-2.17.6-1.5.46-5.08.46-6.74s.14-5.23-.46-6.74h0Zm-8.91,12.6c-3.23,0-5.86-2.62-5.86-5.86s2.62-5.86,5.86-5.86,5.86,2.62,5.86,5.86c0,3.23-2.61,5.85-5.84,5.86,0,0,0,0-.01,0Zm6.1-10.59c-.76,0-1.37-.61-1.37-1.37s.61-1.37,1.37-1.37c.76,0,1.37.61,1.37,1.37h0c0,.75-.61,1.37-1.36,1.37,0,0,0,0,0,0h0ZM28.57,0H3.43C1.54,0,0,1.54,0,3.43v25.14c0,1.89,1.54,3.43,3.43,3.43h25.14c1.89,0,3.43-1.54,3.43-3.43V3.43c0-1.89-1.54-3.43-3.43-3.43Zm-1.22,20.71c-.09,1.83-.51,3.45-1.85,4.79s-2.96,1.76-4.79,1.85c-1.89.11-7.54.11-9.43,0-1.83-.09-3.45-.51-4.79-1.85s-1.76-2.96-1.85-4.79c-.11-1.89-.11-7.54,0-9.43.09-1.83.5-3.45,1.85-4.79s2.96-1.75,4.79-1.84c1.89-.11,7.54-.11,9.43,0,1.83.09,3.45.51,4.79,1.85,1.33,1.34,1.76,2.96,1.85,4.79.11,1.88.11,7.53,0,9.42Z"/>
</svg>