<?xml version="1.0" encoding="UTF-8"?>
<svg id="Layer_1" data-name="Layer 1" xmlns="http://www.w3.org/2000/svg" viewBox="0 0 32 32">
  <defs>
    <style>
      .cls-1 {
        fill: #4f46e5;
      }
    </style>
  </defs>
  <path class="cls-1" d="m4.57,0C2.05,0,0,2.05,0,4.57v22.86c0,2.52,2.05,4.57,4.57,4.57h22.86c2.52,0,4.57-2.05,4.57-4.57V4.57c0-2.52-2.05-4.57-4.57-4.57H4.57Zm21.22,6l-7.41,8.47,8.72,11.53h-6.83l-5.34-6.99-6.12,6.99h-3.39l7.93-9.06L4.98,6h7l4.84,6.39,5.59-6.39h3.39Zm-2.7,17.97L10.96,7.92h-2.02l12.27,16.05h1.89Z"/>
</svg>